<svg width="177" height="211" viewBox="0 0 177 211" fill="none" xmlns="http://www.w3.org/2000/svg">
<mask id="mask0_2_414" style="mask-type:luminance" maskUnits="userSpaceOnUse" x="0" y="0" width="177" height="211">
<path d="M177 0H0V210.855H177V0Z" fill="white"/>
</mask>
<g mask="url(#mask0_2_414)">
<path d="M0.0881239 85.2718C0.0881239 84.7992 0.116838 84.3006 0.116838 83.8539C0.145567 83.5396 0.145535 83.256 0.174265 82.9417C0.231724 81.6561 0.346647 80.3705 0.463959 79.0873V78.8014C0.550148 78.2295 0.607643 77.6316 0.665102 77.0597C0.693831 76.8588 0.6938 76.6887 0.722529 76.4878C0.839842 75.6323 0.961973 74.7768 1.09844 73.919C1.09649 73.9036 1.09807 73.888 1.10304 73.8731C1.10801 73.8585 1.11623 73.845 1.12715 73.8339C1.33065 72.416 1.59162 70.998 1.88131 69.6085C1.89222 69.5974 1.90045 69.5839 1.90542 69.5692C1.91039 69.5544 1.91197 69.5388 1.91002 69.5234C2.02494 68.8948 2.1686 68.2945 2.31464 67.6683C2.71924 65.9833 3.15256 64.2983 3.64335 62.6441C3.9905 61.5003 4.3377 60.3589 4.7423 59.2174C5.00326 59.9878 5.2642 60.7583 5.55389 61.5003C5.75499 62.0438 5.95847 62.585 6.15958 63.1002V63.1286C6.19063 63.2406 6.23997 63.3467 6.30562 63.4429C6.36308 63.5563 6.39181 63.6792 6.44927 63.7855C6.73895 64.5559 7.05744 65.298 7.40699 66.04C7.52439 66.3522 7.6594 66.6575 7.81152 66.9546V66.983C7.84822 67.0737 7.89649 67.1595 7.95517 67.2382L7.98395 67.2665C7.99192 67.3802 8.03257 67.4891 8.10121 67.5808C8.42044 68.2945 8.76759 69.0082 9.14265 69.7219C9.21726 69.8992 9.30364 70.0712 9.40122 70.2371C9.4706 70.385 9.55064 70.528 9.64066 70.6648C9.81543 71.0642 10.0165 71.4352 10.22 71.8063C10.4786 72.2647 10.7387 72.7218 11.0005 73.1769C11.1137 73.4116 11.2392 73.6404 11.3764 73.8623C11.3477 73.8906 11.3764 73.8906 11.3764 73.8906C11.4913 74.1269 11.6374 74.3467 11.781 74.5759C12.2599 75.4905 12.8225 76.3743 13.3995 77.2606C14.065 78.3446 14.7593 79.4009 15.4823 80.4296C15.6183 80.5927 15.7439 80.764 15.8582 80.9424C16.5238 81.8877 17.2181 82.833 17.9124 83.7405C18.5205 84.5392 19.1549 85.3096 19.7917 86.0801C20.1101 86.4818 20.4286 86.8812 20.7757 87.2617C20.9768 87.5169 21.2091 87.7745 21.4413 88.0321C21.9609 88.6607 22.5402 89.2869 23.1172 89.9226C23.216 90.0432 23.3224 90.1578 23.4356 90.2653C24.2473 91.1515 25.0852 92.007 25.9519 92.8648L88.5104 154.644L151.095 92.8648C152.34 91.6383 153.525 90.3811 154.686 89.1262C155.352 88.3842 156.017 87.6138 156.654 86.8434C156.894 86.5858 157.088 86.3282 157.32 86.0706C158.1 85.1253 158.852 84.1588 159.575 83.1875C159.779 82.9015 159.98 82.6463 160.183 82.3604C160.559 81.8759 160.902 81.3607 161.282 80.8479C161.572 80.4485 161.83 80.0468 162.091 79.6474C162.236 79.4642 162.371 79.2742 162.496 79.0779C163.248 77.9364 163.999 76.7643 164.694 75.5945C165.041 75.0226 165.359 74.4814 165.678 73.9095C165.728 73.7949 165.795 73.6888 165.879 73.5952C166.197 73.0257 166.487 72.4254 166.805 71.8535C167.21 71.1115 167.586 70.3694 167.962 69.6274C168.037 69.5021 168.096 69.3679 168.137 69.228C168.244 69.033 168.34 68.8326 168.426 68.6277C168.495 68.5197 168.553 68.4049 168.599 68.2851C168.714 68.0488 168.838 67.8573 168.917 67.6588C169.178 67.1153 169.396 66.6025 169.611 66.0589C169.843 65.6052 170.046 65.138 170.219 64.6599C170.306 64.4898 170.363 64.3456 170.459 64.1755C170.459 64.1471 170.488 64.1187 170.488 64.0904C171.153 62.4621 171.761 60.8622 172.281 59.2363C172.685 60.3778 173.033 61.5192 173.38 62.663C173.619 63.4334 173.844 64.2038 174.045 64.9742C174.246 65.7446 174.479 66.5717 174.653 67.4012C174.883 68.3134 175.085 69.2263 175.259 70.1402C175.463 71.0548 175.637 71.9693 175.781 72.9099C175.925 73.8504 176.099 74.7674 176.214 75.7079C176.329 76.4783 176.418 77.2795 176.504 78.0499C176.533 78.3358 176.561 78.591 176.59 78.877C176.676 79.6758 176.736 80.5052 176.794 81.304V81.3324C176.88 82.1878 176.909 83.0173 176.937 83.8728C176.995 85.0544 177.024 86.1864 177.024 87.3562C177.024 89.0104 176.966 90.6954 176.851 92.352C175.676 113.77 166.506 133.999 151.11 149.135L88.6109 210.799L88.5247 210.884L25.9663 149.135C21.3745 144.621 17.3102 139.613 13.8495 134.204C13.8495 134.174 13.8208 134.148 13.8208 134.117C5.72612 121.592 1.04379 107.215 0.226943 92.3804C0.0569605 89.9817 -0.00045877 87.6421 0.0881239 85.2718Z" fill="url(#paint0_linear_2_414)"/>
<path d="M27.1888 24.4075C41.6647 10.6435 60.4609 2.16125 80.4773 0.360271C100.494 -1.44071 120.534 3.5472 137.292 14.501C137.407 14.5577 137.496 14.6145 137.553 14.6452C141.939 17.5286 146.053 20.7959 149.845 24.4075L147.451 26.7707L88.5098 84.9224L29.2502 26.4351V26.4067L29.0491 26.2061L27.1888 24.4075Z" fill="#79A93D"/>
<path d="M4.74347 59.2081C7.66911 50.6185 11.9445 42.5361 17.4132 35.2569C17.9327 34.5716 18.4546 33.8863 19.0316 33.2009C19.5535 32.544 20.1017 31.887 20.6524 31.23C21.78 29.9468 22.9077 28.6612 24.1214 27.404C24.7008 26.7777 25.3185 26.1775 25.9433 25.5489C26.3204 25.14 26.7269 24.7584 27.1598 24.4074H27.1883L29.0389 26.2058L29.24 26.4067V26.4351L88.5018 84.9293L147.443 26.7777L149.837 24.4145C150.271 24.773 150.686 25.1542 151.079 25.556C160.688 35.0017 167.936 46.5257 172.251 59.2152C171.731 60.8411 171.123 62.441 170.457 64.0692C170.457 64.0976 170.429 64.1259 170.429 64.1543C170.343 64.3244 170.285 64.4686 170.189 64.6387C170.016 65.1171 169.813 65.584 169.581 66.0378C169.118 67.0934 168.627 68.1498 168.106 69.2068C167.702 70.0907 167.237 70.9769 166.775 71.8323C166.11 73.0896 165.415 74.3444 164.664 75.5733C163.969 76.7431 163.227 77.9153 162.466 79.0567C162.408 79.1134 162.38 79.1985 162.322 79.2552C161.628 80.3116 160.886 81.3679 160.096 82.4243C159.921 82.6819 159.749 82.9111 159.545 83.1663C158.765 84.1943 157.955 85.2223 157.151 86.2219L157.093 86.2787C156.313 87.2239 155.503 88.1692 154.663 89.1145C153.507 90.3694 152.322 91.6266 151.072 92.8531L88.4874 154.632L25.929 92.8531C18.5274 85.5572 12.4957 77.0229 8.11435 67.6471C8.02732 67.5273 7.96771 67.3902 7.9396 67.2454C7.8809 67.1667 7.83263 67.0809 7.79595 66.9901V66.9618C7.64383 66.6647 7.50873 66.3594 7.39132 66.0474C7.04417 65.3054 6.72578 64.5631 6.4337 63.7927C6.32093 63.5812 6.22412 63.3614 6.14401 63.1357V63.1074C5.9429 62.5922 5.73943 62.051 5.53832 61.5075C5.26539 60.7489 5.00443 59.9785 4.74347 59.2081Z" fill="url(#paint1_linear_2_414)"/>
<g style="mix-blend-mode:multiply" opacity="0.06">
<path d="M88.5008 84.9267L149.853 24.3907C150.276 24.7499 150.7 25.1684 151.093 25.556C154.17 28.5755 157.012 31.8199 159.594 35.2617L88.5008 84.9267Z" fill="black"/>
</g>
<g style="mix-blend-mode:multiply" opacity="0.06">
<path d="M88.5008 154.616L151.086 92.8366C152.331 91.6101 153.516 90.3528 154.677 89.098C155.342 88.3276 156.008 87.5855 156.645 86.8151C156.884 86.5575 157.078 86.2999 157.31 86.0423C158.091 85.097 158.843 84.1305 159.566 83.1592C159.769 82.8733 159.97 82.618 160.174 82.3321C160.55 81.8476 160.925 81.3325 161.273 80.8196C161.562 80.4203 161.821 80.0185 162.082 79.6191C162.226 79.436 162.361 79.246 162.486 79.0496C163.238 77.9082 163.99 76.736 164.684 75.5662C165.031 75.0227 165.35 74.4531 165.668 73.8812C165.718 73.7666 165.786 73.6605 165.869 73.5669C166.188 72.9974 166.506 72.3972 166.796 71.8253C167.2 71.0832 167.576 70.3412 167.952 69.5991C168.028 69.4739 168.086 69.3396 168.127 69.1997C168.234 69.0048 168.331 68.8044 168.417 68.5995C168.486 68.4915 168.544 68.3766 168.589 68.2568C168.936 67.5148 169.283 66.7727 169.602 66.0307C169.833 65.5769 170.036 65.1097 170.21 64.6316C170.962 62.8332 171.646 61.0348 172.262 59.1963C172.666 60.3377 173.013 61.4791 173.361 62.6229C173.6 63.3933 173.825 64.1637 174.026 64.9341C174.227 65.7045 174.459 66.5317 174.634 67.3612C174.864 68.2734 175.066 69.1863 175.24 70.1001C175.443 71.0147 175.618 71.9292 175.762 72.8698C175.905 73.8104 176.08 74.7273 176.195 75.6678C176.31 76.4382 176.399 77.2394 176.485 78.0098C176.514 78.2957 176.542 78.551 176.571 78.8369C176.657 79.6357 176.717 80.4652 176.775 81.2639V81.2923C176.861 82.1478 176.889 82.9772 176.918 83.8327C176.976 85.0143 177.004 86.1463 177.004 87.3161C177.004 88.9704 176.947 90.6553 176.832 92.3119L175.874 92.9973L101.053 145.765L88.5008 154.616Z" fill="black"/>
</g>
<g style="mix-blend-mode:multiply" opacity="0.06">
<path d="M17.4136 35.2616C17.9331 34.5763 18.455 33.891 19.032 33.2056C19.5539 32.5487 20.1022 31.8917 20.6528 31.2347C21.7804 29.9515 22.9081 28.6659 24.1218 27.4087C24.7012 26.7824 25.3189 26.1538 25.915 25.5536H25.9438C26.3208 25.1445 26.7274 24.7631 27.1602 24.4121H27.1887L29.2117 26.4398C29.2117 26.4114 29.2405 26.4398 29.2405 26.4398C29.2814 26.5026 29.3305 26.5598 29.3865 26.6099L88.5022 84.934L76.5579 76.5989L19.755 36.897L17.4136 35.2616Z" fill="black"/>
</g>
<g style="mix-blend-mode:multiply" opacity="0.06">
<path d="M2.32964 67.6376C2.72227 65.9574 3.14838 64.2819 3.64396 62.6229C3.99111 61.4791 4.33831 60.3377 4.74292 59.1963C5.00388 59.9667 5.26481 60.7371 5.5545 61.4791C5.75561 62.0227 5.95913 62.5638 6.18897 63.079C6.24882 63.3153 6.36369 63.5351 6.44988 63.7643C6.73957 64.5347 7.05803 65.2768 7.40758 66.0188C7.52498 66.3308 7.66001 66.6364 7.81213 66.9334C7.84235 67.0357 7.89102 67.1317 7.95578 67.217C7.98389 67.3619 8.0435 67.4989 8.13055 67.6187C12.5185 76.9837 18.5386 85.5153 25.9166 92.8247H25.9453L88.5038 154.604L76.095 145.839L2.14289 93.7109L0.205998 92.3403L0.177284 92.3119C0.059972 90.6577 0.0025177 88.9727 0.0025177 87.3161C0.0025177 86.6308 0.0624018 85.9454 0.0791606 85.2601C0.0791606 84.7875 0.112686 84.3148 0.131839 83.8256C0.198875 82.1714 0.309 80.5408 0.471801 78.8983C0.550807 78.0854 0.634582 77.2748 0.737529 76.4642C0.847659 75.6088 0.955421 74.7533 1.09189 73.9002C1.3313 72.4326 1.59461 70.9721 1.90106 69.514C2.03273 68.8972 2.18121 68.2733 2.32964 67.6376Z" fill="black"/>
</g>
<g style="mix-blend-mode:multiply" opacity="0.14">
<path d="M29.0238 26.2175L88.501 84.9267L147.433 26.7917C142.924 32.0475 138.205 37.0646 133.578 42.1999C128.887 47.2477 124.169 52.2955 119.39 57.2511C114.64 62.2682 109.768 67.1648 104.958 72.0921L90.3158 86.7251L88.501 88.5471L86.6863 86.7251L71.9217 71.9432C67.0521 66.9569 62.1513 62.0296 57.3415 56.9841C52.5317 51.9387 47.7506 46.8885 43.0007 41.7839C38.3728 36.6109 33.5918 31.5323 29.0238 26.2175Z" fill="black"/>
</g>
<g style="mix-blend-mode:multiply" opacity="0.14">
<path d="M7.81601 66.9806C12.224 76.6106 18.3636 85.3722 25.937 92.8412L88.5003 154.625L151.092 92.8412C159.414 84.646 165.988 74.8876 170.425 64.1423C166.974 73.8263 161.743 82.7992 154.995 90.6103C153.302 92.5812 151.456 94.4316 149.702 96.282L144.408 101.836L133.668 112.855C119.389 127.507 104.867 142.001 90.315 156.423L88.5003 158.215L86.6855 156.423L65.4784 135.282C58.4899 128.174 51.4107 121.126 44.4821 113.93L34.0363 103.201L28.8626 97.7968C27.1676 95.9748 25.3842 94.1835 23.6891 92.3614C16.9031 84.906 11.5269 76.3096 7.81601 66.9806Z" fill="black"/>
</g>
<g style="mix-blend-mode:screen" opacity="0.3">
<path d="M29.0238 26.2175C34.4082 30.7265 39.5582 35.434 44.7846 40.0139C49.9573 44.7025 55.0903 49.4211 60.1833 54.1695C65.2972 58.9172 70.2892 63.7547 75.3408 68.5615L88.5084 81.3724L101.515 68.682C106.543 63.9343 111.47 59.1252 116.553 54.4673C121.605 49.7196 126.687 45.0901 131.83 40.4322C137.032 35.8925 142.125 31.2346 147.44 26.7846L88.5084 84.9196L29.0238 26.2175Z" fill="#BD7171"/>
</g>
<g style="mix-blend-mode:screen" opacity="0.3">
<path d="M7.81601 66.9806C12.3614 75.7613 18.3296 83.7501 25.4848 90.6316C32.7437 97.44 40.0887 104.248 47.295 111.147C54.5564 118.014 61.6957 124.971 68.8972 131.9L88.5003 151.071C102.506 137.274 116.614 123.598 130.824 110.041L141.987 99.4392C145.708 95.9464 149.579 92.482 153.12 88.9277C160.258 81.684 166.108 73.305 170.425 64.1423C165.988 74.8876 159.414 84.646 151.092 92.8412L88.5003 154.625L25.937 92.8412C18.3636 85.3722 12.224 76.6106 7.81601 66.9806Z" fill="#BD7171"/>
</g>
<g style="mix-blend-mode:screen" opacity="0.5">
<path d="M88.5874 210.77C89.3392 209.855 95.7025 202.319 105.478 191.815C110.654 186.162 116.785 179.71 123.434 172.829C126.785 169.433 130.171 165.864 133.729 162.324C137.286 158.784 140.911 155.159 144.488 151.562C146.281 149.792 148.218 147.991 149.896 146.28C151.747 144.454 153.31 142.684 154.871 140.845C157.962 137.222 160.747 133.355 163.2 129.284C167.592 122.034 170.959 114.226 173.208 106.075C174.249 102.478 174.855 99.0799 175.434 96.0834C175.609 94.9963 175.752 93.9707 175.867 93.0112C176.099 91.2404 176.273 89.6413 176.39 88.2139C176.562 86.0728 176.591 84.2744 176.677 83.1046C176.737 82.0766 176.765 81.4504 176.765 81.3062C176.851 82.1617 176.88 82.9912 176.909 83.8467C176.966 85.0283 176.995 86.1602 176.995 87.33C176.995 88.9843 176.938 90.6693 176.823 92.3259C175.648 113.744 166.478 133.973 151.081 149.109L88.5874 210.77Z" fill="#BD7171"/>
</g>
<g style="mix-blend-mode:multiply" opacity="0.2">
<path d="M2.32954 67.6383C2.72217 65.9581 3.14827 64.2825 3.64386 62.6236C3.991 61.4798 4.3382 60.3383 4.74281 59.1969C7.66848 50.6071 11.9439 42.5247 17.4125 35.2458C17.932 34.5604 18.4539 33.8751 19.0309 33.1898C19.5528 32.5328 20.1011 31.8758 20.6517 31.2189C21.7794 29.9356 22.907 28.6501 24.1208 27.3928C24.7002 26.7666 25.3179 26.138 25.914 25.5377H25.9427C26.3196 25.1286 26.7261 24.7472 27.1589 24.3963H27.1877C41.6633 10.6322 60.4598 2.14999 80.4761 0.349013C100.492 -1.45196 120.533 3.53586 137.291 14.4897C136.915 14.2912 136.307 13.9485 135.555 13.5208C133.994 12.6629 131.682 11.5215 128.701 10.1225C120.48 6.41898 111.746 3.94586 102.787 2.78469C90.259 1.12681 77.5174 2.09311 65.3931 5.62059C58.6201 7.61358 52.1069 10.3824 45.9863 13.8705C39.9261 17.3693 34.314 21.5744 29.2706 26.3956C29.2706 26.3956 29.2394 26.3672 29.2394 26.3956V26.4239C29.2394 26.4239 29.2107 26.3956 29.2107 26.4239C29.0096 26.5941 28.8348 26.7949 28.6337 26.9651C25.412 30.0292 22.4426 33.342 19.7539 36.8717C18.0866 39.0574 16.5324 41.3251 15.0973 43.6659C11.4012 49.621 8.44925 55.9962 6.30612 62.6519C6.25453 62.7909 6.21534 62.9341 6.18886 63.0797H6.16008V63.108C4.25414 69.2056 2.99452 75.482 2.40135 81.8365C2.04378 85.7847 1.95658 89.7521 2.14038 93.7116C2.22896 95.6802 2.40133 97.6227 2.60483 99.4779C3.54383 108.353 5.8345 117.037 9.3994 125.237C10.788 128.179 11.8294 130.519 12.6985 132.031C13.218 133.002 13.5938 133.716 13.7973 134.087C5.70266 121.562 1.0204 107.185 0.203553 92.3504L0.174766 92.322C0.0574542 90.6678 0 88.9828 0 87.3262C0 86.6409 0.059884 85.9556 0.0766429 85.2702C0.0766429 84.7976 0.110168 84.3249 0.129321 83.8357C0.196357 82.1815 0.306481 80.5509 0.469282 78.9085C0.548288 78.0955 0.632066 77.2849 0.735013 76.4744C0.845143 75.6189 0.952902 74.7634 1.08937 73.9103C1.32878 72.4427 1.59209 70.9823 1.89854 69.5242C2.03261 68.8979 2.1811 68.274 2.32954 67.6383Z" fill="black"/>
</g>
</g>
<defs>
<linearGradient id="paint0_linear_2_414" x1="-2628.41" y1="2075.62" x2="-2628.41" y2="2188.16" gradientUnits="userSpaceOnUse">
<stop stop-color="#CFE76F"/>
<stop offset="0.247" stop-color="#80E068"/>
<stop offset="0.56" stop-color="#457658"/>
<stop offset="0.75" stop-color="#1F324E"/>
<stop offset="1" stop-color="#131D32"/>
</linearGradient>
<linearGradient id="paint1_linear_2_414" x1="-2627.96" y1="2133.4" x2="-2627.96" y2="2228.59" gradientUnits="userSpaceOnUse">
<stop stop-color="#6A9623"/>
<stop offset="0.04" stop-color="#5D3283"/>
<stop offset="0.35" stop-color="#54618E"/>
<stop offset="0.625" stop-color="#4E8396"/>
<stop offset="0.851" stop-color="#4A989B"/>
<stop offset="1" stop-color="#49A09D"/>
</linearGradient>
</defs>
</svg>
